<svg width="200" height="90" viewBox="0 0 200 90" fill="none" xmlns="http://www.w3.org/2000/svg">
<path fill-rule="evenodd" clip-rule="evenodd" d="M43.3604 0L0 28.6814V90H27.4618V69.0068C27.4618 60.0034 34.4946 52.7046 43.17 52.7046C51.8454 52.7046 58.8782 60.0033 58.8782 69.0068V90H86.7209V28.6814L43.3604 0ZM47.8935 31.131C47.8935 28.7385 46.0246 26.799 43.7193 26.799C41.4139 26.799 39.5451 28.7385 39.5451 31.131V34.0798C39.5451 36.4724 41.4139 38.4119 43.7193 38.4119C46.0246 38.4119 47.8935 36.4724 47.8935 34.0798V31.131Z" fill="white"/>
<path d="M127.742 51.2396H119.237L115.229 35.0602L111.221 51.2396H102.76L97.8621 27.1791H104.052L107.57 45.7229L112.468 27.1791H118.613L123.378 45.7692L126.941 27.1791H132.641L127.742 51.2396Z" fill="white"/>
<path d="M155.819 49.6634C155.463 49.8797 155.047 50.1115 154.572 50.3588C154.127 50.5751 153.577 50.7915 152.924 51.0078C152.301 51.1932 151.559 51.3478 150.698 51.4714C149.867 51.6259 148.872 51.7032 147.714 51.7032C143.202 51.7032 139.862 50.606 137.695 48.4117C135.528 46.2174 134.444 43.1422 134.444 39.1862C134.444 37.2391 134.726 35.4929 135.29 33.9476C135.884 32.4023 136.7 31.1042 137.739 30.0534C138.778 28.9717 140.01 28.1527 141.435 27.5964C142.89 27.0092 144.493 26.7155 146.245 26.7155C148.026 26.7155 149.629 27.0246 151.054 27.6427C152.479 28.2299 153.652 29.1108 154.572 30.2852C155.522 31.4596 156.175 32.9431 156.531 34.7357C156.888 36.5283 156.888 38.599 156.531 40.9478H140.857C141.094 42.8331 141.747 44.2548 142.816 45.2129C143.914 46.1401 145.651 46.6037 148.026 46.6037C149.926 46.6037 151.47 46.3873 152.657 45.9546C153.874 45.522 154.928 45.0738 155.819 44.6102V49.6634ZM146.334 31.4906C144.968 31.4906 143.825 31.9232 142.905 32.7886C141.985 33.654 141.361 34.9057 141.035 36.5437H150.653C150.683 34.8439 150.327 33.5767 149.585 32.7423C148.842 31.9078 147.759 31.4906 146.334 31.4906Z" fill="white"/>
<path d="M184.781 39.1862C184.781 41.3187 184.499 43.1731 183.935 44.7493C183.4 46.2946 182.673 47.5927 181.753 48.6435C180.833 49.6634 179.749 50.436 178.502 50.9615C177.255 51.456 175.949 51.7032 174.583 51.7032C172.802 51.7032 171.273 51.286 169.997 50.4515C168.75 49.617 167.755 48.489 167.013 47.0673L166.79 51.2396H161.001V18H167.147L167.102 31.027C167.874 29.6671 168.883 28.6163 170.13 27.8745C171.377 27.1019 172.876 26.7155 174.628 26.7155C175.994 26.7155 177.285 26.9782 178.502 27.5037C179.749 27.9982 180.833 28.7708 181.753 29.8216C182.703 30.8415 183.445 32.1396 183.979 33.7158C184.514 35.2611 184.781 37.0846 184.781 39.1862ZM172.847 46.5573C174.509 46.5573 175.86 45.9546 176.899 44.7493C177.938 43.544 178.458 41.6896 178.458 39.1862C178.458 36.7137 177.938 34.8748 176.899 33.6694C175.86 32.4332 174.524 31.8151 172.891 31.8151C171.229 31.8151 169.848 32.4332 168.75 33.6694C167.651 34.8748 167.102 36.7137 167.102 39.1862C167.102 41.6896 167.651 43.544 168.75 44.7493C169.848 45.9546 171.214 46.5573 172.847 46.5573Z" fill="white"/>
<path d="M188.912 34.3185H200V39.6034H188.912V34.3185Z" fill="white"/>
<path d="M105.7 55.7604V90H99.5543V55.7604H105.7Z" fill="white"/>
<path d="M124.66 89.5364C124.571 89.0728 124.482 88.4701 124.393 87.7284C124.334 86.9557 124.274 86.2913 124.215 85.7349C123.977 86.2603 123.666 86.7703 123.28 87.2648C122.924 87.7593 122.463 88.2229 121.899 88.6556C121.335 89.0574 120.667 89.3819 119.895 89.6291C119.153 89.8764 118.277 90 117.268 90C116.288 90 115.353 89.8609 114.463 89.5828C113.602 89.3046 112.83 88.8719 112.147 88.2847C111.494 87.6975 110.974 86.9712 110.588 86.1058C110.203 85.2404 110.01 84.2205 110.01 83.0461C110.01 80.4809 110.974 78.5029 112.904 77.1121C114.834 75.7213 117.58 75.0259 121.142 75.0259H123.992V73.9597C123.992 72.4762 123.621 71.4717 122.879 70.9463C122.166 70.39 121.009 70.1119 119.406 70.1119C117.802 70.1119 116.333 70.3282 114.997 70.7609C113.661 71.1936 112.488 71.6726 111.479 72.198V67.0985C112.488 66.5731 113.78 66.0941 115.353 65.6614C116.927 65.2287 118.649 65.0123 120.519 65.0123C123.547 65.0123 125.907 65.6768 127.599 67.0058C129.321 68.3348 130.182 70.4518 130.182 73.357V85.6422C130.182 85.9204 130.182 86.2449 130.182 86.6158C130.212 86.9557 130.227 87.3112 130.227 87.682C130.256 88.0529 130.286 88.4083 130.316 88.7483C130.345 89.0574 130.375 89.3201 130.405 89.5364H124.66ZM119.138 85.4104C120.148 85.4104 120.964 85.1941 121.588 84.7614C122.211 84.2978 122.701 83.7724 123.057 83.1852C123.413 82.598 123.651 82.0262 123.77 81.4699C123.918 80.8827 123.992 80.4654 123.992 80.2182V78.7811H121.365C119.524 78.7811 118.174 79.1056 117.313 79.7546C116.481 80.3727 116.066 81.2226 116.066 82.3044C116.066 83.2934 116.333 84.066 116.867 84.6223C117.431 85.1477 118.188 85.4104 119.138 85.4104Z" fill="white"/>
<path d="M149.282 71.549C147.59 71.3945 146.061 71.5645 144.696 72.059C143.33 72.5225 142.261 73.2797 141.489 74.3306V89.5364H135.344V65.4759H141.089L141.4 70.3437H141.489C142.321 68.7674 143.389 67.5157 144.696 66.5886C146.032 65.6614 147.56 65.136 149.282 65.0123V71.549Z" fill="white"/>
<path d="M167.878 62.3235C166.958 62.3235 166.171 61.9835 165.518 61.3036C164.895 60.6237 164.583 59.8201 164.583 58.8929C164.583 57.9348 164.895 57.1313 165.518 56.4822C166.171 55.8023 166.958 55.4623 167.878 55.4623C168.828 55.4623 169.63 55.8023 170.283 56.4822C170.936 57.1313 171.263 57.9348 171.263 58.8929C171.263 59.8201 170.936 60.6237 170.283 61.3036C169.63 61.9835 168.828 62.3235 167.878 62.3235ZM158.215 62.3235C157.325 62.3235 156.553 61.9835 155.9 61.3036C155.246 60.6237 154.92 59.8201 154.92 58.8929C154.92 57.9348 155.246 57.1313 155.9 56.4822C156.553 55.8023 157.325 55.4623 158.215 55.4623C159.165 55.4623 159.967 55.8023 160.62 56.4822C161.273 57.1313 161.6 57.9348 161.6 58.8929C161.6 59.8201 161.273 60.6237 160.62 61.3036C159.967 61.9835 159.165 62.3235 158.215 62.3235ZM172.866 87.9602C172.51 88.1765 172.094 88.4083 171.619 88.6556C171.174 88.8719 170.624 89.0883 169.971 89.3046C169.348 89.49 168.606 89.6446 167.745 89.7682C166.914 89.9227 165.919 90 164.761 90C160.249 90 156.909 88.9028 154.742 86.7085C152.575 84.5142 151.491 81.439 151.491 77.483C151.491 75.5359 151.773 73.7897 152.337 72.2444C152.931 70.6991 153.747 69.401 154.786 68.3502C155.825 67.2685 157.057 66.4495 158.482 65.8932C159.937 65.3059 161.54 65.0123 163.292 65.0123C165.073 65.0123 166.676 65.3214 168.101 65.9395C169.526 66.5267 170.699 67.4076 171.619 68.582C172.569 69.7564 173.222 71.2399 173.578 73.0325C173.935 74.8251 173.935 76.8958 173.578 79.2446H157.903C158.141 81.1299 158.794 82.5516 159.863 83.5097C160.961 84.4369 162.698 84.9005 165.073 84.9005C166.973 84.9005 168.517 84.6841 169.704 84.2514C170.921 83.8188 171.975 83.3706 172.866 82.907V87.9602ZM163.381 69.7874C162.015 69.7874 160.872 70.22 159.952 71.0854C159.032 71.9508 158.408 73.2025 158.082 74.8405H167.7C167.73 73.1407 167.374 71.8735 166.632 71.039C165.889 70.2046 164.806 69.7874 163.381 69.7874Z" fill="white"/>
<path d="M186.285 80.1718H184.281V89.5364H178.135V56.2968H184.281V75.0723H186.374L193.142 65.4759H199.332L191.183 76.973L199.911 89.5364H192.831L186.285 80.1718Z" fill="white"/>
</svg>
