<svg width="58" height="58" viewBox="0 0 58 58" fill="none" xmlns="http://www.w3.org/2000/svg">
<g clip-path="url(#clip0_325_101)">
<path d="M16.9167 43.5C14.2584 43.5 12.1076 45.675 12.1076 48.3334C12.1076 50.9917 14.2584 53.1667 16.9167 53.1667C19.5751 53.1667 21.7501 50.9917 21.7501 48.3334C21.7501 45.675 19.5751 43.5 16.9167 43.5ZM2.41675 4.83337V9.66671H7.25008L15.9501 28.0092L12.6876 33.93C12.3009 34.6067 12.0834 35.4042 12.0834 36.25C12.0834 38.9084 14.2584 41.0834 16.9167 41.0834H45.9167V36.25H17.9317C17.5934 36.25 17.3276 35.9842 17.3276 35.6459L17.4001 35.3559L19.5751 31.4167H37.5793C39.3918 31.4167 40.9867 30.4259 41.8084 28.9275L50.4601 13.2434C50.6534 12.905 50.7501 12.4942 50.7501 12.0834C50.7501 10.7542 49.6626 9.66671 48.3334 9.66671H12.5909L10.3192 4.83337H2.41675ZM41.0834 43.5C38.4251 43.5 36.2743 45.675 36.2743 48.3334C36.2743 50.9917 38.4251 53.1667 41.0834 53.1667C43.7417 53.1667 45.9167 50.9917 45.9167 48.3334C45.9167 45.675 43.7417 43.5 41.0834 43.5Z" fill="white"/>
</g>
<defs>
<clipPath id="clip0_325_101">
<rect width="58" height="58" fill="white"/>
</clipPath>
</defs>
</svg>
