<svg width="256" height="256" viewBox="0 0 256 256" fill="none" xmlns="http://www.w3.org/2000/svg">
<g filter="url(#filter0_iiiii_325_323)">
<path fill-rule="evenodd" clip-rule="evenodd" d="M128 256C198.692 256 256 198.692 256 128C256 57.3076 198.692 0 128 0C57.3076 0 0 57.3076 0 128C0 198.692 57.3076 256 128 256ZM57.3432 133.663C60.8407 130.181 66.4978 130.191 69.983 133.685L82.2555 145.989C85.7647 149.508 87.5193 151.267 89.2727 152.433C96.3141 157.115 105.477 157.117 112.52 152.438C114.274 151.273 116.03 149.515 119.541 145.998L189.105 76.3205C192.588 72.8319 198.241 72.8333 201.722 76.3235C205.192 79.8022 205.192 85.4327 201.722 88.9114L125.861 164.969C116.422 174.431 111.703 179.163 106.137 180.598C102.698 181.485 99.0896 181.485 95.6501 180.598C90.0844 179.163 85.3652 174.431 75.9267 164.969L57.3208 146.315C53.8309 142.816 53.8409 137.149 57.3432 133.663Z" fill="#0C1828" fill-opacity="0.31"/>
</g>
<defs>
<filter id="filter0_iiiii_325_323" x="0" y="-0.513394" width="256" height="263.188" filterUnits="userSpaceOnUse" color-interpolation-filters="sRGB">
<feFlood flood-opacity="0" result="BackgroundImageFix"/>
<feBlend mode="normal" in="SourceGraphic" in2="BackgroundImageFix" result="shape"/>
<feColorMatrix in="SourceAlpha" type="matrix" values="0 0 0 0 0 0 0 0 0 0 0 0 0 0 0 0 0 0 127 0" result="hardAlpha"/>
<feOffset dy="0.128348"/>
<feGaussianBlur stdDeviation="2.56697"/>
<feComposite in2="hardAlpha" operator="arithmetic" k2="-1" k3="1"/>
<feColorMatrix type="matrix" values="0 0 0 0 0.909804 0 0 0 0 0.909804 0 0 0 0 0.909804 0 0 0 0.2 0"/>
<feBlend mode="normal" in2="shape" result="effect1_innerShadow_325_323"/>
<feColorMatrix in="SourceAlpha" type="matrix" values="0 0 0 0 0 0 0 0 0 0 0 0 0 0 0 0 0 0 127 0" result="hardAlpha"/>
<feOffset dy="0.513394"/>
<feGaussianBlur stdDeviation="1.15514"/>
<feComposite in2="hardAlpha" operator="arithmetic" k2="-1" k3="1"/>
<feColorMatrix type="matrix" values="0 0 0 0 0.909804 0 0 0 0 0.909804 0 0 0 0 0.909804 0 0 0 0.5 0"/>
<feBlend mode="normal" in2="effect1_innerShadow_325_323" result="effect2_innerShadow_325_323"/>
<feColorMatrix in="SourceAlpha" type="matrix" values="0 0 0 0 0 0 0 0 0 0 0 0 0 0 0 0 0 0 127 0" result="hardAlpha"/>
<feMorphology radius="6.16073" operator="dilate" in="SourceAlpha" result="effect3_innerShadow_325_323"/>
<feOffset dy="12.5782"/>
<feGaussianBlur stdDeviation="6.41742"/>
<feComposite in2="hardAlpha" operator="arithmetic" k2="-1" k3="1"/>
<feColorMatrix type="matrix" values="0 0 0 0 0.909804 0 0 0 0 0.909804 0 0 0 0 0.909804 0 0 0 0.3 0"/>
<feBlend mode="normal" in2="effect2_innerShadow_325_323" result="effect3_innerShadow_325_323"/>
<feColorMatrix in="SourceAlpha" type="matrix" values="0 0 0 0 0 0 0 0 0 0 0 0 0 0 0 0 0 0 127 0" result="hardAlpha"/>
<feMorphology radius="8.2143" operator="dilate" in="SourceAlpha" result="effect4_innerShadow_325_323"/>
<feOffset dy="-10.5246"/>
<feGaussianBlur stdDeviation="4.36385"/>
<feComposite in2="hardAlpha" operator="arithmetic" k2="-1" k3="1"/>
<feColorMatrix type="matrix" values="0 0 0 0 0.908333 0 0 0 0 0.908333 0 0 0 0 0.908333 0 0 0 1 0"/>
<feBlend mode="normal" in2="effect3_innerShadow_325_323" result="effect4_innerShadow_325_323"/>
<feColorMatrix in="SourceAlpha" type="matrix" values="0 0 0 0 0 0 0 0 0 0 0 0 0 0 0 0 0 0 127 0" result="hardAlpha"/>
<feMorphology radius="0.513394" operator="dilate" in="SourceAlpha" result="effect5_innerShadow_325_323"/>
<feOffset dy="0.898439"/>
<feGaussianBlur stdDeviation="0.705917"/>
<feComposite in2="hardAlpha" operator="arithmetic" k2="-1" k3="1"/>
<feColorMatrix type="matrix" values="0 0 0 0 1 0 0 0 0 1 0 0 0 0 1 0 0 0 1 0"/>
<feBlend mode="normal" in2="effect4_innerShadow_325_323" result="effect5_innerShadow_325_323"/>
</filter>
</defs>
</svg>
